<?xml version="1.0" encoding="UTF-8"?>
<svg width="36px" height="36px" viewBox="0 0 36 36" version="1.1" xmlns="http://www.w3.org/2000/svg" xmlns:xlink="http://www.w3.org/1999/xlink">
    <!-- Generator: Sketch 44.1 (41455) - http://www.bohemiancoding.com/sketch -->
    <title>Github Icon</title>
    <desc>Created with Sketch.</desc>
    <defs></defs>
    <g id="Welcome" stroke="none" stroke-width="1" fill="none" fill-rule="evenodd">
        <g id="Desktop-HD" transform="translate(-512.000000, -512.000000)">
            <g id="Head" transform="translate(439.000000, 333.000000)">
                <g id="Nav" transform="translate(64.000000, 179.000000)">
                    <g id="Github-Icon" transform="translate(9.000000, 0.000000)">
                        <path d="M18,1.5 C8.9025,1.5 1.5,8.9025 1.5,18 C1.5,27.0975 8.9025,34.5 18,34.5 C27.0975,34.5 34.5,27.0975 34.5,18 C34.5,8.9025 27.0975,1.5 18,1.5 M18,36 C8.0745,36 0,27.9255 0,18 C0,8.0745 8.0745,0 18,0 C27.9255,0 36,8.0745 36,18 C36,27.9255 27.9255,36 18,36" id="Fill-3" fill="#2D221F"></path>
                        <path d="M14.38335,34.08405 C16.81785,34.63755 19.18485,34.63755 21.61635,34.08405 C21.46185,33.02055 21.50235,31.72005 21.53835,30.62955 C21.55035,30.22605 21.56235,29.85255 21.56235,29.53455 C21.56235,28.08705 20.73285,27.14055 20.72535,27.13005 C20.53185,26.91405 20.47935,26.60355 20.59485,26.33655 C20.70735,26.06805 20.96535,25.88955 21.25485,25.87755 C21.49485,25.86855 27.13185,25.60905 28.04385,20.90655 C28.86435,16.68405 26.81385,14.54355 26.72685,14.45355 C26.57835,14.30355 26.49735,14.09355 26.50935,13.88355 C26.50935,13.87755 26.57835,12.61455 26.57835,11.51055 C26.57835,10.99905 26.47185,10.40955 26.36385,9.95655 C25.79235,10.07505 24.96585,10.28205 24.39435,10.58205 C23.40585,11.09655 22.47735,11.76105 22.46985,11.76705 C22.20435,11.96055 21.84435,11.95755 21.57885,11.75655 C21.57435,11.75205 21.56835,11.74905 21.56235,11.74455 C21.46335,11.69805 21.26235,11.62455 20.86635,11.49855 C19.47285,11.05455 16.52835,11.05455 15.13335,11.49855 C14.73735,11.62455 14.53785,11.69805 14.43735,11.74455 C14.43135,11.74905 14.42535,11.75205 14.42085,11.75655 C14.15535,11.95605 13.79535,11.95905 13.53135,11.76705 C13.52235,11.76105 12.59535,11.09655 11.60535,10.58205 C11.06085,10.29705 10.24185,10.08405 9.63585,9.95655 C9.53385,10.38855 9.42135,10.97805 9.42135,11.51055 C9.42135,12.61605 9.49035,13.88355 9.49035,13.88355 C9.50235,14.09655 9.42135,14.30505 9.26985,14.45655 C9.18585,14.54355 7.13535,16.68405 7.95585,20.90655 C8.87085,25.62855 14.68485,25.87605 14.74335,25.87755 C15.03735,25.88805 15.29685,26.06655 15.41085,26.33805 C15.52335,26.60805 15.47085,26.92005 15.27135,27.13455 C15.26685,27.14055 14.43735,28.08705 14.43735,29.53455 C14.43735,29.85105 14.44935,30.22455 14.46285,30.62805 C14.49585,31.71855 14.53935,33.02055 14.38335,34.08405 M17.99985,35.99955 C16.45935,35.99955 14.87985,35.78505 13.30635,35.36205 C13.11135,35.30955 12.94635,35.17905 12.84735,35.00355 C12.74835,34.82805 12.72585,34.61805 12.78285,34.42605 C13.05285,33.51105 13.00335,31.93905 12.96285,30.67605 C12.94935,30.25455 12.93735,29.86455 12.93735,29.53455 C12.93735,28.60155 13.18035,27.82305 13.45185,27.24405 C10.88235,26.80305 7.25835,25.19205 6.48135,21.19155 C5.66685,16.99005 7.33485,14.45355 7.97685,13.65855 C7.95735,13.20405 7.92135,12.31605 7.92135,11.51055 C7.92135,10.27905 8.36235,8.92005 8.38035,8.86305 C8.49435,8.51805 8.84685,8.29605 9.20085,8.35455 C9.28035,8.36505 11.12235,8.63655 12.29985,9.25155 C12.99135,9.61305 13.64085,10.02855 14.03085,10.28955 C14.20185,10.22505 14.41335,10.15305 14.67885,10.06905 C16.38435,9.52455 19.61235,9.52455 21.32085,10.06905 C21.58785,10.15305 21.79785,10.22505 21.97035,10.28955 C22.35885,10.02855 23.00835,9.61305 23.69985,9.25155 C24.87735,8.63655 26.72085,8.36505 26.79885,8.35455 C27.15735,8.29755 27.50685,8.51805 27.61935,8.86305 C27.63735,8.92005 28.07835,10.27905 28.07835,11.51055 C28.07835,12.31605 28.04235,13.20405 28.02285,13.65855 C28.66485,14.45355 30.33285,16.99005 29.51835,21.19305 C28.73985,25.19205 25.11585,26.80305 22.54785,27.24405 C22.81785,27.82305 23.06235,28.60155 23.06235,29.53455 C23.06235,29.86455 23.05035,30.25605 23.03835,30.67755 C22.99635,31.94055 22.94685,33.51255 23.21685,34.42605 C23.27385,34.61805 23.24985,34.82805 23.15235,35.00355 C23.05185,35.17905 22.88685,35.30955 22.69185,35.36205 C21.11985,35.78505 19.54035,35.99955 17.99985,35.99955" id="Fill-5" fill="#2D221F"></path>
                        <polygon id="Fill-7" fill="#FFFFFF" points="3.65925 32.97075 2.59875 31.91025 7.28775 27.21975 8.34825 28.28025"></polygon>
                        <polygon id="Fill-9" fill="#FFFFFF" points="28.76805 7.47 27.70755 6.4095 32.39655 1.7205 33.45705 2.781"></polygon>
                        <polygon id="Fill-11" fill="#2D221F" points="0.6285 19.3725 6.816 19.3725 6.816 17.8725 0.6285 17.8725"></polygon>
                        <polygon id="Fill-13" fill="#2D221F" points="0.816 22.548 7.956 22.548 7.956 21.048 0.816 21.048"></polygon>
                        <polygon id="Fill-14" fill="#2D221F" points="0.816 16.197 7.7625 16.197 7.7625 14.697 0.816 14.697"></polygon>
                        <polygon id="Fill-15" fill="#2D221F" points="29.3775 19.3725 35.565 19.3725 35.565 17.8725 29.3775 17.8725"></polygon>
                        <polygon id="Fill-16" fill="#2D221F" points="28.2375 22.548 35.3775 22.548 35.3775 21.048 28.2375 21.048"></polygon>
                        <polygon id="Fill-17" fill="#2D221F" points="35.3775 16.1982 28.431 16.1967 28.431 14.6967 35.3775 14.6982"></polygon>
                    </g>
                </g>
            </g>
        </g>
    </g>
</svg>