<?xml version="1.0" encoding="utf-8"?>
<!-- Generator: Adobe Illustrator 19.0.0, SVG Export Plug-In . SVG Version: 6.00 Build 0)  -->
<svg version="1.1" id="Layer_1" xmlns="http://www.w3.org/2000/svg" xmlns:xlink="http://www.w3.org/1999/xlink" x="0px" y="0px"
	 viewBox="-397 282.3 46 31" style="enable-background:new -397 282.3 46 31;" xml:space="preserve">
<style type="text/css">
	.st0{fill:#2D221F;}
</style>
<title>Mail icon</title>
<desc>Created with Sketch.</desc>
<path id="Fill-10" class="st0" d="M-354.5,309.7h-4.7c-0.4,0-0.8-0.3-0.8-0.8c0-0.4,0.3-0.8,0.8-0.8h3.2v-5.7c0-0.4,0.3-0.8,0.8-0.8
	c0.4,0,0.8,0.3,0.8,0.8V309.7z"/>
<path id="Fill-12" class="st0" d="M-362,309.7h-1.6c-0.4,0-0.8-0.3-0.8-0.8c0-0.4,0.3-0.8,0.8-0.8h1.6c0.4,0,0.8,0.3,0.8,0.8
	C-361.3,309.4-361.6,309.7-362,309.7"/>
<path id="Fill-14" class="st0" d="M-373.6,302.3c-0.8,0-1.6-0.2-2.3-0.6l-19.4-10.8l0.7-1.3l19.4,10.8c1,0.5,2.1,0.5,3.1,0
	l19.4-10.8l0.7,1.3l-19.4,10.8C-372,302.1-372.8,302.3-373.6,302.3"/>
<g>
	<rect x="-395.5" y="302.5" class="st0" width="1.5" height="3.1"/>
	<path class="st0" d="M-353.9,282.7h-39.4c-1.3,0-2.3,1-2.3,2.3v15.8h1.5V285c0-0.4,0.3-0.8,0.8-0.8h39.4c0.4,0,0.8,0.3,0.8,0.8
		v25.7c0,0.4-0.3,0.8-0.8,0.8h-26.9h-1.8h-4h-0.8h-0.9h-4.9c-0.4,0-0.8-0.3-0.8-0.8v-3.3h-1.5v3.3c0,1.2,1,2.3,2.3,2.3h4.9h0.9h0.8
		h4h1.8h26.9c1.3,0,2.3-1,2.3-2.3V285C-351.6,283.8-352.7,282.7-353.9,282.7z"/>
</g>
</svg>
