<?xml version="1.0" encoding="UTF-8"?>
<svg width="46px" height="31px" viewBox="0 0 46 31" version="1.1" xmlns="http://www.w3.org/2000/svg" xmlns:xlink="http://www.w3.org/1999/xlink">
    <!-- Generator: Sketch 44.1 (41455) - http://www.bohemiancoding.com/sketch -->
    <title>Mail icon</title>
    <desc>Created with Sketch.</desc>
    <defs>
        <polygon id="path-1" points="0 0.185280938 0 1.93749208 4.17797505 1.93749208 4.17797505 0.185280938 4.10364693e-20 0.185280938"></polygon>
        <polygon id="path-3" points="0 0.278972434 0 2.03118358 4.17797505 2.03118358 4.17797505 0.278972434 4.10364693e-20 0.278972434"></polygon>
    </defs>
    <g id="Welcome" stroke="none" stroke-width="1" fill="none" fill-rule="evenodd">
        <g id="Desktop-HD" transform="translate(-882.000000, -514.000000)">
            <g id="Head" transform="translate(439.000000, 333.000000)">
                <g id="Nav" transform="translate(64.000000, 179.000000)">
                    <g id="Mail-icon" transform="translate(379.000000, 2.000000)">
                        <g id="Group-22" transform="translate(0.000000, 0.190236)">
                            <g id="Group-5" transform="translate(1.000000, 0.000000)" fill="#2D221F">
                                <g id="Group-6" transform="translate(0.032258, 0.000000)">
                                    <path d="M42.0602632,0.278972434 L2.69682237,0.278972434 C1.44324817,0.278972434 0.425854624,1.28795777 0.425854624,2.53117185 L0.425854624,28.2467848 C0.425854624,29.4899988 1.44324817,30.4989842 2.69682237,30.4989842 L7.61725247,30.4989842 L8.56348903,30.4989842 L9.38406538,30.4989842 L13.3567449,30.4989842 L15.1235578,30.4989842 L42.0602632,30.4989842 C43.3138374,30.4989842 44.331231,29.4899988 44.331231,28.2467848 L44.331231,2.53117185 C44.331231,1.28795777 43.3138374,0.278972434 42.0602632,0.278972434 M42.0602632,1.78043871 C42.4781213,1.78043871 42.8172525,2.11676716 42.8172525,2.53117185 L42.8172525,28.2467848 C42.8172525,28.659688 42.4781213,28.9975179 42.0602632,28.9975179 L15.1235578,28.9975179 L13.3567449,28.9975179 L9.38406538,28.9975179 L8.56348903,28.9975179 L7.61725247,28.9975179 L2.69682237,28.9975179 C2.2789643,28.9975179 1.93983312,28.659688 1.93983312,28.2467848 L1.93983312,2.53117185 C1.93983312,2.11676716 2.2789643,1.78043871 2.69682237,1.78043871 L42.0602632,1.78043871" id="Fill-4"></path>
                                </g>
                            </g>
                            <path d="M42.4616465,27.249661 L37.7304637,27.249661 C37.3126056,27.249661 36.9734744,26.9133326 36.9734744,26.4989279 C36.9734744,26.0845232 37.3126056,25.7481947 37.7304637,25.7481947 L40.947668,25.7481947 L40.947668,20.0486287 C40.947668,19.634224 41.2867991,19.2978956 41.7046572,19.2978956 C42.1225153,19.2978956 42.4616465,19.634224 42.4616465,20.0486287 L42.4616465,27.249661 Z" id="Fill-10" fill="#2D221F"></path>
                            <path d="M34.9863776,27.249661 L33.3467389,27.249661 C32.9288809,27.249661 32.5897497,26.9133326 32.5897497,26.4989279 C32.5897497,26.0845232 32.9288809,25.7481947 33.3467389,25.7481947 L34.9863776,25.7481947 C35.4042357,25.7481947 35.7433669,26.0845232 35.7433669,26.4989279 C35.7433669,26.9133326 35.4042357,27.249661 34.9863776,27.249661" id="Fill-12" fill="#2D221F"></path>
                            <path d="M23.4098925,19.8465314 C22.6180817,19.8465314 21.823243,19.6483378 21.1147011,19.2534522 L1.7176086,8.44139355 L2.45945806,7.13211496 L21.8580645,17.9456751 C22.8164129,18.4801971 24.007914,18.4801971 24.9632344,17.9456751 L44.3618409,7.13211496 L45.1036903,8.44139355 L25.7065978,19.2534522 C24.9980559,19.6483378 24.2032172,19.8465314 23.4098925,19.8465314" id="Fill-14" fill="#2D221F"></path>
                            <g id="Group-18" transform="translate(0.000000, 22.991202)">
                                <mask id="mask-2" fill="white">
                                    <use xlink:href="#path-1"></use>
                                </mask>
                                <g id="Clip-17"></g>
                                <polygon id="Fill-16" fill="#FFFFFF" mask="url(#mask-2)" points="4.17797505 0.185280938 4.17797505 1.93749208 -0.000605591398 1.93749208 -0.000605591398 0.185280938"></polygon>
                            </g>
                            <g id="Group-21" transform="translate(0.000000, 18.017595)">
                                <mask id="mask-4" fill="white">
                                    <use xlink:href="#path-3"></use>
                                </mask>
                                <g id="Clip-20"></g>
                                <polygon id="Fill-19" fill="#FFFFFF" mask="url(#mask-4)" points="4.17797505 0.278972434 4.17797505 2.03118358 -0.000605591398 2.03118358 -0.000605591398 0.278972434"></polygon>
                            </g>
                        </g>
                    </g>
                </g>
            </g>
        </g>
    </g>
</svg>