<?xml version="1.0" encoding="utf-8"?>
<!-- Generator: Adobe Illustrator 19.0.0, SVG Export Plug-In . SVG Version: 6.00 Build 0)  -->
<svg version="1.1" id="Layer_1" xmlns="http://www.w3.org/2000/svg" xmlns:xlink="http://www.w3.org/1999/xlink" x="0px" y="0px"
	 viewBox="-402 280.3 36 36" style="enable-background:new -402 280.3 36 36;" xml:space="preserve">
<style type="text/css">
	.st0{fill:#2D221F;}
</style>
<title>Github Icon</title>
<desc>Created with Sketch.</desc>
<path id="Fill-5" class="st0" d="M-387.6,314.4c2.4,0.6,4.8,0.6,7.2,0c-0.2-1.1-0.1-2.4-0.1-3.5c0-0.4,0-0.8,0-1.1
	c0-1.4-0.8-2.4-0.8-2.4c-0.2-0.2-0.2-0.5-0.1-0.8c0.1-0.3,0.4-0.4,0.7-0.5c0.2,0,5.9-0.3,6.8-5c0.8-4.2-1.2-6.4-1.3-6.5
	c-0.1-0.1-0.2-0.4-0.2-0.6c0,0,0.1-1.3,0.1-2.4c0-0.5-0.1-1.1-0.2-1.6c-0.6,0.1-1.4,0.3-2,0.6c-1,0.5-1.9,1.2-1.9,1.2
	c-0.3,0.2-0.6,0.2-0.9,0c0,0,0,0,0,0c-0.1,0-0.3-0.1-0.7-0.2c-1.4-0.4-4.3-0.4-5.7,0c-0.4,0.1-0.6,0.2-0.7,0.2c0,0,0,0,0,0
	c-0.3,0.2-0.6,0.2-0.9,0c0,0-0.9-0.7-1.9-1.2c-0.5-0.3-1.4-0.5-2-0.6c-0.1,0.4-0.2,1-0.2,1.6c0,1.1,0.1,2.4,0.1,2.4
	c0,0.2-0.1,0.4-0.2,0.6c-0.1,0.1-2.1,2.2-1.3,6.5c0.9,4.7,6.7,5,6.8,5c0.3,0,0.6,0.2,0.7,0.5c0.1,0.3,0.1,0.6-0.1,0.8
	c0,0-0.8,1-0.8,2.4c0,0.3,0,0.7,0,1.1C-387.5,312-387.5,313.3-387.6,314.4 M-384,316.3c-1.5,0-3.1-0.2-4.7-0.6
	c-0.2-0.1-0.4-0.2-0.5-0.4c-0.1-0.2-0.1-0.4-0.1-0.6c0.3-0.9,0.2-2.5,0.2-3.8c0-0.4,0-0.8,0-1.1c0-0.9,0.2-1.7,0.5-2.3
	c-2.6-0.4-6.2-2.1-7-6.1c-0.8-4.2,0.9-6.7,1.5-7.5c0-0.5-0.1-1.3-0.1-2.1c0-1.2,0.4-2.6,0.5-2.6c0.1-0.3,0.5-0.6,0.8-0.5
	c0.1,0,1.9,0.3,3.1,0.9c0.7,0.4,1.3,0.8,1.7,1c0.2-0.1,0.4-0.1,0.6-0.2c1.7-0.5,4.9-0.5,6.6,0c0.3,0.1,0.5,0.2,0.6,0.2
	c0.4-0.3,1-0.7,1.7-1c1.2-0.6,3-0.9,3.1-0.9c0.4-0.1,0.7,0.2,0.8,0.5c0,0.1,0.5,1.4,0.5,2.6c0,0.8,0,1.7-0.1,2.1
	c0.6,0.8,2.3,3.3,1.5,7.5c-0.8,4-4.4,5.6-7,6.1c0.3,0.6,0.5,1.4,0.5,2.3c0,0.3,0,0.7,0,1.1c0,1.3-0.1,2.8,0.2,3.7
	c0.1,0.2,0,0.4-0.1,0.6c-0.1,0.2-0.3,0.3-0.5,0.4C-380.9,316.1-382.5,316.3-384,316.3"/>
<g>
	<path class="st0" d="M-371.2,285.7l-1.1,1.1c2.9,3,4.7,7,4.7,11.5c0,9.1-7.4,16.5-16.5,16.5c-4.4,0-8.4-1.7-11.3-4.5l-1.1,1.1
		c3.2,3.1,7.6,5,12.4,5c9.9,0,18-8.1,18-18C-366,293.4-368,288.9-371.2,285.7z"/>
	<path class="st0" d="M-396.4,309.2c-2.6-2.9-4.1-6.7-4.1-10.9c0-9.1,7.4-16.5,16.5-16.5c4.1,0,7.8,1.5,10.7,3.9l1.1-1.1
		c-3.2-2.7-7.3-4.4-11.7-4.4c-9.9,0-18,8.1-18,18c0,4.6,1.7,8.8,4.6,11.9L-396.4,309.2z"/>
</g>
<polygon id="Fill-11" class="st0" points="-401.4,299.7 -395.2,299.7 -395.2,298.2 -401.4,298.2 "/>
<polygon id="Fill-13" class="st0" points="-401.2,302.8 -394,302.8 -394,301.3 -401.2,301.3 "/>
<polygon id="Fill-14" class="st0" points="-401.2,296.5 -394.2,296.5 -394.2,295 -401.2,295 "/>
<polygon id="Fill-15" class="st0" points="-372.6,299.7 -366.4,299.7 -366.4,298.2 -372.6,298.2 "/>
<polygon id="Fill-16" class="st0" points="-373.8,302.8 -366.6,302.8 -366.6,301.3 -373.8,301.3 "/>
<polygon id="Fill-17" class="st0" points="-366.6,296.5 -373.6,296.5 -373.6,295 -366.6,295 "/>
</svg>
