<?xml version="1.0" encoding="UTF-8"?>
<svg width="23px" height="24px" viewBox="0 0 23 24" version="1.1" xmlns="http://www.w3.org/2000/svg" xmlns:xlink="http://www.w3.org/1999/xlink">
    <!-- Generator: Sketch 44.1 (41455) - http://www.bohemiancoding.com/sketch -->
    <title>Github Icon</title>
    <desc>Created with Sketch.</desc>
    <defs></defs>
    <g id="Welcome" stroke="none" stroke-width="1" fill="none" fill-rule="evenodd">
        <g id="Desktop-HD" transform="translate(-520.000000, -524.000000)" fill="#E66BFF">
            <g id="Head" transform="translate(439.000000, 333.000000)">
                <g id="Nav" transform="translate(64.000000, 179.000000)">
                    <g id="Github-Icon" transform="translate(9.000000, 0.000000)">
                        <path d="M30.4686,24.04905 C29.4276,29.41305 22.9686,29.62755 22.9686,29.62755 C22.9686,29.62755 24.0006,30.75255 24.0006,32.53305 C24.0006,32.84805 23.9886,33.22005 23.9751,33.61755 C21.7596,34.65405 19.2951,35.24955 16.6866,35.24955 C16.2636,35.24955 15.8466,35.21655 15.4311,35.18655 C15.4311,34.21755 15.3741,33.23805 15.3741,32.53305 C15.3741,30.75255 16.4061,29.62755 16.4061,29.62755 C16.4061,29.62755 9.9471,29.41305 8.9061,24.04905 C7.9926,19.33755 10.4301,16.92405 10.4301,16.92405 C10.4301,16.92405 10.3596,15.63555 10.3596,14.51055 C10.3596,13.38555 10.7811,12.09555 10.7811,12.09555 C10.7811,12.09555 12.5616,12.35355 13.6401,12.91605 C14.6916,13.46505 15.6561,14.15805 15.6561,14.15805 C15.6561,14.15805 15.6321,14.08905 16.5936,13.78305 C18.1401,13.29105 21.2346,13.29105 22.7811,13.78305 C23.7426,14.08905 23.7186,14.15805 23.7186,14.15805 C23.7186,14.15805 24.6831,13.46505 25.7346,12.91605 C26.8116,12.35355 28.5936,12.09555 28.5936,12.09555 C28.5936,12.09555 29.0151,13.38555 29.0151,14.51055 C29.0151,15.63555 28.9446,16.92405 28.9446,16.92405 C28.9446,16.92405 31.3821,19.33755 30.4686,24.04905 Z" id="Fill-1"></path>
                    </g>
                </g>
            </g>
        </g>
    </g>
</svg>