<svg width="164" height="192" viewBox="0 0 164 192" fill="none" xmlns="http://www.w3.org/2000/svg">
<path d="M123.44 113.92L110.88 78.4C110.133 76.5333 109.333 74.3467 108.48 71.84C107.68 69.3333 106.907 66.6133 106.16 63.68C105.413 66.6667 104.613 69.44 103.76 72C102.96 74.5067 102.187 76.6933 101.44 78.56L88.96 113.92H123.44ZM163.76 158H145.12C143.04 158 141.333 157.52 140 156.56C138.72 155.547 137.76 154.267 137.12 152.72L129.28 130.56H83.04L75.2 152.72C74.6667 154.053 73.7333 155.28 72.4 156.4C71.0667 157.467 69.3867 158 67.36 158H48.56L93.92 41.92H118.48L163.76 158Z" fill="black"/>
<mask id="path-2-outside-1_2_2" maskUnits="userSpaceOnUse" x="-0.501007" y="35.371" width="136" height="131" fill="black">
<rect fill="white" x="-0.501007" y="35.371" width="136" height="131"/>
<path d="M79.832 113.918V158H56.132V113.918L14.499 43.371H35.355C37.409 43.371 39.0417 43.8713 40.253 44.872C41.517 45.82 42.5177 47.0577 43.255 48.585L62.057 84.688C63.321 87.1107 64.4533 89.3753 65.454 91.482C66.5073 93.5887 67.429 95.6953 68.219 97.802C68.9563 95.6953 69.799 93.5887 70.747 91.482C71.7477 89.3227 72.8537 87.058 74.065 84.688L92.709 48.585C93.341 47.321 94.289 46.136 95.553 45.03C96.817 43.924 98.4497 43.371 100.451 43.371H121.465L79.832 113.918Z"/>
</mask>
<path d="M79.832 113.918V158H56.132V113.918L14.499 43.371H35.355C37.409 43.371 39.0417 43.8713 40.253 44.872C41.517 45.82 42.5177 47.0577 43.255 48.585L62.057 84.688C63.321 87.1107 64.4533 89.3753 65.454 91.482C66.5073 93.5887 67.429 95.6953 68.219 97.802C68.9563 95.6953 69.799 93.5887 70.747 91.482C71.7477 89.3227 72.8537 87.058 74.065 84.688L92.709 48.585C93.341 47.321 94.289 46.136 95.553 45.03C96.817 43.924 98.4497 43.371 100.451 43.371H121.465L79.832 113.918Z" fill="black"/>
<path d="M79.832 113.918L72.9423 109.852L71.832 111.733V113.918H79.832ZM79.832 158V166H87.832V158H79.832ZM56.132 158H48.132V166H56.132V158ZM56.132 113.918H64.132V111.733L63.0217 109.852L56.132 113.918ZM14.499 43.371V35.371H0.48862L7.60928 47.4369L14.499 43.371ZM40.253 44.872L35.1579 51.0397L35.3027 51.1593L35.453 51.272L40.253 44.872ZM43.255 48.585L36.0506 52.063L36.1034 52.1724L36.1595 52.2802L43.255 48.585ZM62.057 84.688L54.9615 88.3832L54.9643 88.3885L62.057 84.688ZM65.454 91.482L58.2278 94.9144L58.2624 94.9874L58.2986 95.0597L65.454 91.482ZM68.219 97.802L60.7284 100.611L68.4784 121.278L75.7699 100.445L68.219 97.802ZM70.747 91.482L63.4885 88.1183L63.4698 88.1586L63.4516 88.1991L70.747 91.482ZM74.065 84.688L66.9568 81.0173L66.9492 81.0322L66.9415 81.0471L74.065 84.688ZM92.709 48.585L99.8171 52.2557L99.8411 52.2094L99.8644 52.1627L92.709 48.585ZM95.553 45.03L100.821 51.0506L100.821 51.0506L95.553 45.03ZM121.465 43.371L128.355 47.4369L135.475 35.371H121.465V43.371ZM71.832 113.918V158H87.832V113.918H71.832ZM79.832 150H56.132V166H79.832V150ZM64.132 158V113.918H48.132V158H64.132ZM63.0217 109.852L21.3887 39.3051L7.60928 47.4369L49.2423 117.984L63.0217 109.852ZM14.499 51.371H35.355V35.371H14.499V51.371ZM35.355 51.371C35.7432 51.371 35.8549 51.4193 35.776 51.3951C35.7333 51.3821 35.6467 51.3512 35.5314 51.2904C35.4148 51.2288 35.2863 51.1457 35.1579 51.0397L45.3481 38.7043C42.3127 36.1968 38.6903 35.371 35.355 35.371V51.371ZM35.453 51.272C35.619 51.3965 35.8277 51.6012 36.0506 52.063L50.4594 45.107C49.2077 42.5141 47.415 40.2435 45.053 38.472L35.453 51.272ZM36.1595 52.2802L54.9615 88.3832L69.1524 80.9928L50.3504 44.8898L36.1595 52.2802ZM54.9643 88.3885C56.1897 90.7372 57.2765 92.9117 58.2278 94.9144L72.6802 88.0495C71.6302 85.839 70.4523 83.4841 69.1497 80.9875L54.9643 88.3885ZM58.2986 95.0597C59.2326 96.9278 60.041 98.7781 60.7284 100.611L75.7096 94.993C74.817 92.6125 73.782 90.2496 72.6094 87.9043L58.2986 95.0597ZM75.7699 100.445C76.4287 98.5625 77.1854 96.6693 78.0424 94.7649L63.4516 88.1991C62.4126 90.5081 61.484 92.8282 60.6681 95.1592L75.7699 100.445ZM78.0055 94.8457C78.9582 92.7897 80.0185 90.6179 81.1885 88.3289L66.9415 81.0471C65.6888 83.4981 64.5371 85.8556 63.4885 88.1183L78.0055 94.8457ZM81.1731 88.3587L99.8171 52.2557L85.6009 44.9143L66.9568 81.0173L81.1731 88.3587ZM99.8644 52.1627C99.9531 51.9854 100.194 51.599 100.821 51.0506L90.285 39.0094C88.3837 40.673 86.7289 42.6566 85.5536 45.0073L99.8644 52.1627ZM100.821 51.0506C100.74 51.1211 100.647 51.1884 100.546 51.2462C100.445 51.3038 100.357 51.3409 100.292 51.3629C100.161 51.4074 100.186 51.371 100.451 51.371V35.371C96.9023 35.371 93.2765 36.3918 90.285 39.0094L100.821 51.0506ZM100.451 51.371H121.465V35.371H100.451V51.371ZM114.575 39.3051L72.9423 109.852L86.7217 117.984L128.355 47.4369L114.575 39.3051Z" fill="white" mask="url(#path-2-outside-1_2_2)"/>
</svg>
